<?xml version="1.0" encoding="UTF-8" standalone="no"?>
<svg
   viewBox="-57.4 -96.7 499.42567 173.48002"
   version="1.1"
   id="svg8"
   sodipodi:docname="logo-merilight-new.svg"
   width="499.42566"
   height="173.48001"
   inkscape:version="1.4.4 (dcaf3e7, 2026-05-05)"
   xmlns:inkscape="http://www.inkscape.org/namespaces/inkscape"
   xmlns:sodipodi="http://sodipodi.sourceforge.net/DTD/sodipodi-0.dtd"
   xmlns:xlink="http://www.w3.org/1999/xlink"
   xmlns="http://www.w3.org/2000/svg"
   xmlns:svg="http://www.w3.org/2000/svg">
  <sodipodi:namedview
     id="namedview8"
     pagecolor="#ffffff"
     bordercolor="#000000"
     borderopacity="0.25"
     inkscape:showpageshadow="2"
     inkscape:pageopacity="0.0"
     inkscape:pagecheckerboard="0"
     inkscape:deskcolor="#d1d1d1"
     inkscape:zoom="1.51"
     inkscape:cx="329.80132"
     inkscape:cy="59.271523"
     inkscape:window-width="1920"
     inkscape:window-height="1009"
     inkscape:window-x="1912"
     inkscape:window-y="-8"
     inkscape:window-maximized="1"
     inkscape:current-layer="svg8" />
  <defs
     id="defs3">
    <linearGradient
       id="linearGradient30"
       inkscape:collect="always">
      <stop
         style="stop-color:#38daf9;stop-opacity:0.98823529;"
         offset="0"
         id="stop30" />
      <stop
         style="stop-color:#bddff3;stop-opacity:0.39607844;"
         offset="1"
         id="stop31" />
    </linearGradient>
    <linearGradient
       id="linearGradient23"
       inkscape:collect="always">
      <stop
         style="stop-color:#37d5f7;stop-opacity:0.98431373;"
         offset="0"
         id="stop23" />
      <stop
         style="stop-color:#1669a5;stop-opacity:0.40000001;"
         offset="1"
         id="stop24" />
    </linearGradient>
    <radialGradient
       id="focusGradient"
       cx="0"
       cy="0"
       r="128.89999"
       gradientUnits="userSpaceOnUse">
      <stop
         offset="0%"
         stop-color="#123463"
         stop-opacity="0.55"
         id="stop1" />
      <stop
         offset="55%"
         stop-color="#1C8FD1"
         stop-opacity="0.85"
         id="stop2" />
      <stop
         offset="100%"
         stop-color="#3ADFFC"
         stop-opacity="1"
         id="stop3" />
    </radialGradient>
    <radialGradient
       inkscape:collect="always"
       xlink:href="#focusGradient"
       id="radialGradient8"
       gradientUnits="userSpaceOnUse"
       cx="0"
       cy="0"
       r="128.89999"
       gradientTransform="translate(313.16566,-9.959992)" />
    <radialGradient
       inkscape:collect="always"
       xlink:href="#focusGradient"
       id="radialGradient9"
       gradientUnits="userSpaceOnUse"
       cx="0"
       cy="0"
       r="128.89999"
       gradientTransform="translate(313.16566,-9.959992)" />
    <radialGradient
       inkscape:collect="always"
       xlink:href="#focusGradient"
       id="radialGradient10"
       gradientUnits="userSpaceOnUse"
       cx="0"
       cy="0"
       r="128.89999"
       gradientTransform="translate(313.16566,-9.959992)" />
    <radialGradient
       inkscape:collect="always"
       xlink:href="#focusGradient"
       id="radialGradient11"
       gradientUnits="userSpaceOnUse"
       cx="0"
       cy="0"
       r="128.89999"
       gradientTransform="translate(313.16566,-9.959992)" />
    <radialGradient
       inkscape:collect="always"
       xlink:href="#focusGradient"
       id="radialGradient12"
       gradientUnits="userSpaceOnUse"
       cx="0"
       cy="0"
       r="128.89999"
       gradientTransform="translate(313.16566,-9.959992)" />
    <radialGradient
       inkscape:collect="always"
       xlink:href="#focusGradient"
       id="radialGradient13"
       gradientUnits="userSpaceOnUse"
       cx="0"
       cy="0"
       r="128.89999"
       gradientTransform="translate(313.16566,-9.959992)" />
    <linearGradient
       inkscape:collect="always"
       xlink:href="#linearGradient23"
       id="linearGradient24"
       x1="-282.56711"
       y1="-9.9005671"
       x2="-7.4366384"
       y2="-9.9005671"
       gradientUnits="userSpaceOnUse" />
    <linearGradient
       inkscape:collect="always"
       xlink:href="#linearGradient23"
       id="linearGradient25"
       gradientUnits="userSpaceOnUse"
       x1="-282.56711"
       y1="-9.9005671"
       x2="-7.4366384"
       y2="-9.9005671" />
    <linearGradient
       inkscape:collect="always"
       xlink:href="#linearGradient23"
       id="linearGradient28"
       gradientUnits="userSpaceOnUse"
       x1="-287.00461"
       y1="-9.8380671"
       x2="-7.4366384"
       y2="-9.9005671" />
    <linearGradient
       inkscape:collect="always"
       xlink:href="#linearGradient23"
       id="linearGradient29"
       gradientUnits="userSpaceOnUse"
       x1="-282.56711"
       y1="-9.9005671"
       x2="-7.4366384"
       y2="-9.9005671" />
    <linearGradient
       inkscape:collect="always"
       xlink:href="#linearGradient30"
       id="linearGradient31"
       x1="66.059822"
       y1="-19.1826"
       x2="66.059822"
       y2="-43.713238"
       gradientUnits="userSpaceOnUse"
       gradientTransform="translate(-6.193053,-13.907281)" />
  </defs>
  <path
     d="m 297.37566,-21.69 1.47,-1.94 1.5,-1.88 1.63,-1.77 1.78,-1.64 1.9,-1.49 2.03,-1.35 2.13,-1.17 2.23,-1.01 2.31,-0.83 2.37,-0.65 2.42,-0.46 2.45,-0.27 2.45,-0.08 2.46,0.12 2.43,0.3 2.39,0.49 2.33,0.67 2.26,0.86 2.17,1.02 2.06,1.18 1.94,1.34 1.81,1.49 1.67,1.61 1.5,1.73 1.34,1.85 1.16,1.93 0.98,2.01 0.8,2.08 0.59,2.13 0.4,2.170008 0.2,2.19 v 2.2 l -0.2,2.19 -0.4,2.17 -0.59,2.13 -0.8,2.08 -0.98,2.01 -1.16,1.93 -1.34,1.85 -1.5,1.73 -1.67,1.61 -1.81,1.49 -1.94,1.34 -2.06,1.18 -2.17,1.02 -2.26,0.86 -2.33,0.67 -2.39,0.49 -2.43,0.3 -2.46,0.12 -2.45,-0.08 -2.45,-0.27 -2.42,-0.46 -2.37,-0.65 -2.31,-0.83 -2.23,-1.01 -2.13,-1.17 -2.03,-1.35 -1.9,-1.49 -1.78,-1.64 -1.63,-1.77 -1.5,-1.88 -1.47,-1.94 v 0 l 0.91,2.29 1.26,2.13 1.48,2.03 1.69,1.89 1.87,1.74 2.04,1.59 2.19,1.42 2.31,1.23 2.43,1.05 2.52,0.84 2.59,0.64 2.65,0.43 2.69,0.21 h 2.69 l 2.69,-0.23 2.66,-0.44 2.62,-0.65 2.54,-0.87 2.46,-1.06 2.36,-1.27 2.23,-1.45 2.09,-1.63 1.94,-1.8 1.76,-1.95 1.57,-2.09 1.38,-2.21 1.16,-2.32 0.94,-2.4 0.72,-2.48 0.48,-2.53 0.24,-2.56 v -2.56 l -0.24,-2.56 -0.48,-2.530008 -0.72,-2.48 -0.94,-2.4 -1.16,-2.32 -1.38,-2.21 -1.57,-2.09 -1.76,-1.95 -1.94,-1.8 -2.09,-1.63 -2.23,-1.45 -2.36,-1.27 -2.46,-1.06 -2.54,-0.87 -2.62,-0.65 -2.66,-0.44 -2.69,-0.23 h -2.69 l -2.69,0.21 -2.65,0.43 -2.59,0.64 -2.52,0.84 -2.43,1.05 -2.31,1.23 -2.19,1.42 -2.04,1.59 -1.87,1.74 -1.69,1.89 -1.48,2.03 -1.26,2.13 z"
     fill="url(#focusGradient)"
     opacity="0.55"
     id="path3"
     style="fill:url(#radialGradient8);stroke:none" />
  <path
     d="m 291.06566,-26.38 2.02,-2.74 2.08,-2.65 2.28,-2.49 2.48,-2.31 2.66,-2.11 2.84,-1.89 2.99,-1.67 3.13,-1.42 3.23,-1.18 3.33,-0.92 3.4,-0.65 3.44,-0.39 3.46,-0.12 3.45,0.15 3.42,0.42 3.36,0.69 3.28,0.94 3.18,1.19 3.06,1.44 2.9,1.66 2.74,1.88 2.55,2.09 2.34,2.27 2.13,2.44 1.89,2.59 1.64,2.73 1.38,2.84 1.12,2.93 0.85,3.01 0.56,3.050008 0.28,3.09 v 3.1 l -0.28,3.09 -0.56,3.05 -0.85,3.01 -1.12,2.93 -1.38,2.84 -1.64,2.73 -1.89,2.59 -2.13,2.44 -2.34,2.27 -2.55,2.09 -2.74,1.88 -2.9,1.66 -3.06,1.44 -3.18,1.19 -3.28,0.94 -3.36,0.69 -3.42,0.42 -3.45,0.15 -3.46,-0.12 -3.44,-0.39 -3.4,-0.65 -3.33,-0.92 -3.23,-1.18 -3.13,-1.42 -2.99,-1.67 -2.84,-1.89 -2.66,-2.11 -2.48,-2.31 -2.28,-2.49 -2.08,-2.65 -2.02,-2.74 v 0 l 1.3,3.18 1.78,2.98 2.09,2.81 2.37,2.63 2.62,2.43 2.85,2.21 3.06,1.97 3.23,1.72 3.39,1.45 3.52,1.17 3.63,0.88 3.69,0.59 3.74,0.29 3.76,-0.02 3.75,-0.32 3.71,-0.62 3.64,-0.91 3.55,-1.21 3.43,-1.49 3.27,-1.77 3.11,-2.03 2.91,-2.27 2.69,-2.51 2.45,-2.71 2.19,-2.91 1.91,-3.08 1.62,-3.23 1.31,-3.34 1,-3.45 0.66,-3.52 0.34,-3.55 v -3.58 l -0.34,-3.550008 -0.66,-3.52 -1,-3.45 -1.31,-3.34 -1.62,-3.23 -1.91,-3.08 -2.19,-2.91 -2.45,-2.71 -2.69,-2.51 -2.91,-2.27 -3.11,-2.03 -3.27,-1.77 -3.43,-1.49 -3.55,-1.21 -3.64,-0.91 -3.71,-0.62 -3.75,-0.32 -3.76,-0.02 -3.74,0.29 -3.69,0.59 -3.63,0.88 -3.52,1.17 -3.39,1.45 -3.23,1.72 -3.06,1.97 -2.85,2.21 -2.62,2.43 -2.37,2.63 -2.09,2.81 -1.78,2.98 z"
     fill="url(#focusGradient)"
     opacity="0.64"
     id="path4"
     style="fill:url(#radialGradient9)" />
  <path
     d="m 284.74566,-31.07 2.57,-3.53 2.67,-3.43 2.93,-3.22 3.18,-2.98 3.42,-2.72 3.65,-2.44 3.85,-2.15 4.02,-1.85 4.17,-1.52 4.29,-1.19 4.37,-0.85 4.43,-0.5 4.46,-0.16 4.44,0.19 4.41,0.54 4.34,0.87 4.23,1.21 4.1,1.54 3.94,1.85 3.75,2.14 3.53,2.42 3.3,2.69 3.02,2.93 2.74,3.15 2.44,3.34 2.12,3.52 1.79,3.66 1.45,3.79 1.09,3.88 0.73,3.94 0.36,3.990008 v 4 l -0.36,3.99 -0.73,3.94 -1.09,3.88 -1.45,3.79 -1.79,3.66 -2.12,3.52 -2.44,3.34 -2.74,3.15 -3.02,2.93 -3.3,2.69 -3.53,2.42 -3.75,2.14 -3.94,1.85 -4.1,1.54 -4.23,1.21 -4.34,0.87 -4.41,0.54 -4.44,0.19 -4.46,-0.16 -4.43,-0.5 -4.37,-0.85 -4.29,-1.19 -4.17,-1.52 -4.02,-1.85 -3.85,-2.15 -3.65,-2.44 -3.42,-2.72 -3.18,-2.98 -2.93,-3.22 -2.67,-3.43 -2.57,-3.53 v 0 l 1.7,4.08 2.3,3.81 2.69,3.61 3.05,3.37 3.38,3.11 3.66,2.83 3.93,2.52 4.15,2.2 4.36,1.85 4.52,1.5 4.65,1.13 4.74,0.75 4.8,0.36 4.82,-0.02 4.81,-0.41 4.76,-0.8 4.67,-1.18 4.55,-1.56 4.39,-1.92 4.2,-2.26 3.98,-2.6 3.73,-2.92 3.45,-3.21 3.14,-3.48 2.8,-3.73 2.45,-3.95 2.07,-4.13 1.68,-4.3 1.27,-4.41 0.86,-4.5 0.43,-4.56 v -4.58 l -0.43,-4.560008 -0.86,-4.5 -1.27,-4.41 -1.68,-4.3 -2.07,-4.13 -2.45,-3.95 -2.8,-3.73 -3.14,-3.48 -3.45,-3.21 -3.73,-2.92 -3.98,-2.6 -4.2,-2.26 -4.39,-1.92 -4.55,-1.56 -4.67,-1.18 -4.76,-0.8 -4.81,-0.41 -4.82,-0.02 -4.8,0.36 -4.74,0.75 -4.65,1.13 -4.52,1.5 -4.36,1.85 -4.15,2.2 -3.93,2.52 -3.66,2.83 -3.38,3.11 -3.05,3.37 -2.69,3.61 -2.3,3.81 z"
     fill="url(#focusGradient)"
     opacity="0.73"
     id="path5"
     style="fill:url(#radialGradient10)" />
  <path
     d="m 278.42566,-35.76 3.13,-4.33 3.25,-4.2 3.57,-3.94 3.89,-3.65 4.18,-3.33 4.46,-3 4.71,-2.64 4.92,-2.26 5.1,-1.87 5.24,-1.46 5.35,-1.04 5.42,-0.63 5.46,-0.19 5.44,0.23 5.4,0.65 5.31,1.07 5.18,1.48 5.02,1.87 4.83,2.26 4.59,2.63 4.33,2.96 4.03,3.29 3.71,3.59 3.36,3.85 2.99,4.1 2.6,4.31 2.19,4.49 1.77,4.63 1.34,4.76 0.89,4.83 0.45,4.890008 v 4.9 l -0.45,4.89 -0.89,4.83 -1.34,4.76 -1.77,4.63 -2.19,4.49 -2.6,4.31 -2.99,4.1 -3.36,3.85 -3.71,3.59 -4.03,3.29 -4.33,2.96 -4.59,2.63 -4.83,2.26 -5.02,1.87 -5.18,1.48 -5.31,1.07 -5.4,0.65 -5.44,0.23 -5.46,-0.19 -5.42,-0.63 -5.35,-1.04 -5.24,-1.46 -5.1,-1.87 -4.92,-2.26 -4.71,-2.64 -4.46,-3 -4.18,-3.33 -3.89,-3.65 -3.57,-3.94 -3.25,-4.2 -3.13,-4.33 v 0 l 2.1,4.97 2.82,4.66 3.3,4.4 3.73,4.11 4.12,3.79 4.48,3.45 4.8,3.07 5.08,2.68 5.32,2.26 5.51,1.82 5.68,1.37 5.79,0.91 5.86,0.45 5.88,-0.04 5.87,-0.5 5.8,-0.98 5.7,-1.45 5.55,-1.89 5.36,-2.35 5.13,-2.76 4.85,-3.18 4.55,-3.56 4.2,-3.92 3.83,-4.25 3.42,-4.55 2.99,-4.81 2.52,-5.04 2.05,-5.24 1.55,-5.38 1.04,-5.49 0.52,-5.56 v -5.58 l -0.52,-5.560008 -1.04,-5.49 -1.55,-5.38 -2.05,-5.24 -2.52,-5.04 -2.99,-4.81 -3.42,-4.55 -3.83,-4.25 -4.2,-3.92 -4.55,-3.56 -4.85,-3.18 -5.13,-2.76 -5.36,-2.35 -5.55,-1.89 -5.7,-1.45 -5.8,-0.98 -5.87,-0.5 -5.88,-0.04 -5.86,0.45 -5.79,0.91 -5.68,1.37 -5.51,1.82 -5.32,2.26 -5.08,2.68 -4.8,3.07 -4.48,3.45 -4.12,3.79 -3.73,4.11 -3.3,4.4 -2.82,4.66 z"
     fill="url(#focusGradient)"
     opacity="0.82"
     id="path6"
     style="fill:url(#radialGradient11)" />
  <path
     d="m 272.11566,-40.45 3.68,-5.13 3.83,-4.97 4.22,-4.66 4.59,-4.32 4.94,-3.95 5.27,-3.55 5.56,-3.12 5.82,-2.68 6.03,-2.21 6.2,-1.74 6.33,-1.24 6.42,-0.74 6.45,-0.23 6.44,0.26 6.38,0.77 6.29,1.26 6.13,1.75 5.95,2.22 5.71,2.67 5.43,3.1 5.12,3.51 4.78,3.9 4.39,4.24 3.98,4.56 3.54,4.85 3.08,5.1 2.59,5.31 2.1,5.49 1.58,5.63 1.06,5.72 0.53,5.790008 v 5.8 l -0.53,5.79 -1.06,5.72 -1.58,5.63 -2.1,5.49 -2.59,5.31 -3.08,5.1 -3.54,4.85 -3.98,4.56 -4.39,4.24 -4.78,3.9 -5.12,3.51 -5.43,3.1 -5.71,2.67 -5.95,2.22 -6.13,1.75 -6.29,1.26 -6.38,0.77 -6.44,0.26 -6.45,-0.23 -6.42,-0.74 -6.33,-1.24 -6.2,-1.74 -6.03,-2.21 -5.82,-2.68 -5.56,-3.12 -5.27,-3.55 -4.94,-3.95 -4.59,-4.32 -4.22,-4.66 -3.83,-4.97 -3.68,-5.13 v 0 l 2.5,5.86 3.33,5.5 3.9,5.19 4.41,4.85 4.88,4.48 5.29,4.07 5.67,3.63 6,3.15 6.28,2.67 6.52,2.15 6.7,1.61 6.84,1.07 6.91,0.52 6.95,-0.04 6.93,-0.6 6.85,-1.16 6.73,-1.71 6.55,-2.24 6.32,-2.77 6.05,-3.27 5.73,-3.75 5.37,-4.2 4.96,-4.62 4.52,-5.02 4.03,-5.37 3.52,-5.68 2.98,-5.95 2.42,-6.18 1.83,-6.35 1.23,-6.48 0.61,-6.56 v -6.58 l -0.61,-6.560008 -1.23,-6.48 -1.83,-6.35 -2.42,-6.18 -2.98,-5.95 -3.52,-5.68 -4.03,-5.37 -4.52,-5.02 -4.96,-4.62 -5.37,-4.2 -5.73,-3.75 -6.05,-3.27 -6.32,-2.77 -6.55,-2.24 -6.73,-1.71 -6.85,-1.16 -6.93,-0.6 -6.95,-0.04 -6.91,0.52 -6.84,1.07 -6.7,1.61 -6.52,2.15 -6.28,2.67 -6,3.15 -5.67,3.63 -5.29,4.07 -4.88,4.48 -4.41,4.85 -3.9,5.19 -3.33,5.5 z"
     fill="url(#focusGradient)"
     opacity="0.91"
     id="path7"
     style="fill:url(#radialGradient12)" />
  <path
     d="m 265.79566,-45.14 4.23,-5.93 4.42,-5.73 4.86,-5.39 5.3,-5 5.7,-4.56 6.08,-4.1 6.42,-3.61 6.72,-3.09 6.96,-2.56 7.16,-2 7.31,-1.44 7.4,-0.86 7.45,-0.28 7.44,0.31 7.37,0.88 7.25,1.46 7.09,2.02 6.87,2.56 6.59,3.08 6.28,3.58 5.92,4.06 5.51,4.49 5.08,4.9 4.59,5.27 4.1,5.6 3.55,5.89 3,6.14 2.42,6.34 1.83,6.5 1.23,6.61 0.61,6.690008 v 6.7 l -0.61,6.69 -1.23,6.61 -1.83,6.5 -2.42,6.34 -3,6.14 -3.55,5.89 -4.1,5.6 -4.59,5.27 -5.08,4.9 -5.51,4.49 -5.92,4.06 -6.28,3.58 -6.59,3.08 -6.87,2.56 -7.09,2.02 -7.25,1.46 -7.37,0.88 -7.44,0.31 -7.45,-0.28 -7.4,-0.86 -7.31,-1.44 -7.16,-2 -6.96,-2.56 -6.72,-3.09 -6.42,-3.61 -6.08,-4.1 -5.7,-4.56 -5.3,-5 -4.86,-5.39 -4.42,-5.73 -4.23,-5.93 v 0 l 2.9,6.76 3.85,6.34 4.51,5.98 5.09,5.59 5.62,5.16 6.11,4.69 6.54,4.18 6.92,3.64 7.25,3.06 7.51,2.48 7.73,1.86 7.88,1.23 7.98,0.59 8.01,-0.05 7.99,-0.69 7.9,-1.34 7.75,-1.97 7.55,-2.59 7.29,-3.19 6.98,-3.77 6.6,-4.32 6.19,-4.85 5.72,-5.33 5.2,-5.78 4.65,-6.19 4.06,-6.55 3.43,-6.86 2.79,-7.12 2.11,-7.32 1.41,-7.47 0.71,-7.56 v -7.58 l -0.71,-7.560008 -1.41,-7.47 -2.11,-7.32 -2.79,-7.12 -3.43,-6.86 -4.06,-6.55 -4.65,-6.19 -5.2,-5.78 -5.72,-5.33 -6.19,-4.85 -6.6,-4.32 -6.98,-3.77 -7.29,-3.19 -7.55,-2.59 -7.75,-1.97 -7.9,-1.34 -7.99,-0.69 -8.01,-0.05 -7.98,0.59 -7.88,1.23 -7.73,1.86 -7.51,2.48 -7.25,3.06 -6.92,3.64 -6.54,4.18 -6.11,4.69 -5.62,5.16 -5.09,5.59 -4.51,5.98 -3.85,6.34 z"
     fill="url(#focusGradient)"
     opacity="1"
     id="path8"
     style="fill:url(#radialGradient13)" />
  <g
     id="path13"
     style="opacity:1;fill:url(#linearGradient24);fill-opacity:1;stroke:none;stroke-opacity:1"
     transform="matrix(1.3160449,0,0,1,325.54597,4e-6)">
    <path
       style="baseline-shift:baseline;display:inline;overflow:visible;vector-effect:none;fill:url(#linearGradient25);fill-opacity:1;stroke:none;stroke-opacity:1;enable-background:accumulate;stop-color:#000000;stop-opacity:1"
       d="M -37.912829,-9.900744 H -280.5671"
       id="path22" />
    <path
       style="baseline-shift:baseline;display:inline;overflow:visible;vector-effect:none;fill:#38d9f9;fill-opacity:0.988235;stroke:none;stroke-opacity:1;enable-background:accumulate;stop-color:#000000;stop-opacity:1"
       d="m -280.56641,-11.900391 v 4.0000004 h 242.654301 v -4.0000004 z"
       id="path23" />
    <g
       id="g20"
       style="fill:url(#linearGradient29);fill-opacity:1;stroke:none;stroke-opacity:1">
      <path
         style="baseline-shift:baseline;display:inline;overflow:visible;vector-effect:none;fill:#38d9f9;fill-opacity:0.988235;stroke:none;stroke-opacity:1;enable-background:accumulate;stop-color:#000000;stop-opacity:1"
         d="m -37.912829,-11.900744 30.4761905,2 -30.4761905,2 -0.02121,-2.0441942 z"
         sodipodi:nodetypes="sssss"
         id="path20" />
      <path
         style="baseline-shift:baseline;display:inline;overflow:visible;vector-effect:none;fill:url(#linearGradient28);fill-opacity:1;stroke:none;stroke-opacity:1;enable-background:accumulate;stop-color:#000000;stop-opacity:1"
         d="m -280.5671,-7.900744 -5.5625,-2 5.5625,-2 0.1,2 z"
         sodipodi:nodetypes="sssss"
         id="path21" />
    </g>
  </g>
  <text
     xml:space="preserve"
     style="font-style:normal;font-variant:normal;font-weight:normal;font-stretch:normal;font-size:64px;font-family:Calibri;-inkscape-font-specification:'Calibri, Normal';font-variant-ligatures:normal;font-variant-caps:normal;font-variant-numeric:normal;font-variant-east-asian:normal;writing-mode:lr-tb;direction:ltr;fill:url(#linearGradient31);stroke:none;stroke-width:4;stroke-dasharray:none;stroke-opacity:1"
     x="-63.112747"
     y="-29.954966"
     id="text29"><tspan
       id="tspan29"
       x="-63.112747"
       y="-29.954966"
       style="font-style:normal;font-variant:normal;font-weight:normal;font-stretch:normal;font-size:85.3333px;font-family:Calibri;-inkscape-font-specification:'Calibri, Normal';font-variant-ligatures:normal;font-variant-caps:normal;font-variant-numeric:normal;font-variant-east-asian:normal;opacity:1;fill:url(#linearGradient31)"
       sodipodi:role="line">merilight</tspan></text>
</svg>
